# xmcd
#
# Track frame offsets:
#	150
#	20142
#	39865
#	61545
#	78087
#	101705
#
# Disc length: 1697 seconds
#
# Revision: 1
# Processed by: cddbd v1.5.1PL0 Copyright (c) Steve Scherf et al.
# Submitted via: CDex 1.50Beta5
#
DISCID=3a069f06
DTITLE=BEAT BOYS - ビートボーイズ登場
DYEAR=1900
DGENRE=Pop
TTITLE0=HEART BREAK LONELY RAIN
TTITLE1=SHADE OF LADY
TTITLE2=HARD FUNKY NIGHT
TTITLE3=YELLOW SUNSHINE
TTITLE4=DIAMOND DANDY
TTITLE5=BAD MORNING
EXTD=
EXTT0=
EXTT1=
EXTT2=
EXTT3=
EXTT4=
EXTT5=
PLAYORDER=
